<?xml version="1.0" encoding="UTF-8"?> <svg xmlns="http://www.w3.org/2000/svg" width="135" height="43" viewBox="0 0 135 43" fill="none"><g clip-path="url(#clip0)"><path d="M122.442 0.569824H105.698C98.7907 0.569824 93.1396 6.22099 93.1396 13.128V29.8722C93.1396 36.7791 98.7907 42.4303 105.698 42.4303H122.442C129.349 42.4303 135 36.7791 135 29.8722V13.128C135 6.22099 129.349 0.569824 122.442 0.569824ZM114.07 36.1512C105.977 36.1512 99.4186 29.5931 99.4186 21.5001C99.4186 13.407 105.977 6.84889 114.07 6.84889C122.163 6.84889 128.721 13.407 128.721 21.5001C128.721 29.5931 122.163 36.1512 114.07 36.1512Z" fill="#E76A2C"></path><path d="M41.8605 38.2442V2.66285C41.8605 1.52331 40.907 0.569824 39.7674 0.569824H35.5814C34.4419 0.569824 33.4884 1.52331 33.4884 2.66285V29.2675L9.74419 2.15122C9 1.2675 8.37209 0.569824 6.27907 0.569824H2.09302C0.953488 0.569824 0 1.52331 0 2.66285V40.3373C0 41.4768 0.953488 42.4303 2.09302 42.4303H6.27907C7.44186 42.4303 8.37209 41.4768 8.37209 40.3373V13.7326L32.1163 40.8721C32.8837 41.7326 34.4419 42.4535 35.5814 42.4535H37.6744C39.9767 42.4303 41.8605 40.5466 41.8605 38.2442Z" fill="#4057A7"></path><path d="M57.5581 25.6861H76.3953C83.3023 25.6861 88.9535 20.0349 88.9535 13.128C88.9535 6.22099 83.3023 0.569824 76.3953 0.569824H59.6512C52.7442 0.569824 47.093 6.22099 47.093 13.128V29.8722C47.093 36.7791 52.7442 42.4303 59.6512 42.4303H78.4884C79.6512 42.4303 80.5814 41.4768 80.5814 40.3373V36.1512C80.5814 35.0117 79.6512 34.0582 78.4884 34.0582H59.6512C57.3488 34.0582 55.4651 32.1745 55.4651 29.8722V27.7791C55.4651 26.6396 56.4186 25.6861 57.5581 25.6861ZM55.4651 13.128C55.4651 10.8256 57.3488 8.94192 59.6512 8.94192H76.3953C78.6977 8.94192 80.5814 10.8256 80.5814 13.128C80.5814 15.4303 78.6977 17.314 76.3953 17.314H57.5581C56.4186 17.314 55.4651 16.3605 55.4651 15.221V13.128Z" fill="#4A9243"></path></g><defs><clipPath id="clip0"><rect width="135" height="41.8605" fill="white" transform="translate(0 0.569824)"></rect></clipPath></defs></svg> 